<svg xmlns="http://www.w3.org/2000/svg" viewBox="0 0 2756 1844"><defs><style>.cls-1{fill:#4589b5;}.cls-2{fill:#ebf2f9;}.cls-3{fill:#dceaf9;}.cls-4{fill:#d5e7f7;}.cls-5{fill:#c4d9ed;}.cls-6{fill:#adc9e0;}.cls-7{fill:#1c2948;}.cls-8{fill:#e37970;}.cls-9{fill:#233862;}.cls-10{fill:#2b478b;}.cls-11{fill:#ab7041;}.cls-12{fill:#9c5f33;}.cls-13{fill:#74acbe;}.cls-14{fill:#9ed9f0;}.cls-15{fill:#d86713;}.cls-16{fill:#f1a34f;}.cls-17{fill:#163560;}.cls-18{fill:#b64c41;}.cls-19{fill:#dd7f30;}.cls-20{fill:#466aa5;}.cls-21{fill:#283250;}.cls-22{fill:#66a357;}.cls-23{fill:#a8d29f;}.cls-24{fill:#82b378;}.cls-25{fill:#2d3a62;}.cls-26{fill:#98bdf4;}</style></defs><g id="Layer_2" data-name="Layer 2"><g id="Layer_1-2" data-name="Layer 1"><rect class="cls-1" width="2756" height="1844"/><path class="cls-2" d="M2315.69,694.17c-396,82.63-163.8-831.1-703.2-443.25-214.52,154.24-523.4-32.41-819.2,69.6-271.65,93.7-204.74,401.12-178.45,501.71,53.09,203.18-211.34,122.14-364.62,209.44C9.79,1168.6,220.7,1720.67,447.83,1723s1895.87-4.58,1895.87-4.58,99.12-77.55,151.76-237.38C2603.35,1153.35,2664.35,621.41,2315.69,694.17Z"/><rect class="cls-3" x="2214.22" y="1507.69" width="102.59" height="211.4"/><polygon class="cls-4" points="805.38 914.89 805.38 822.5 833.43 822.5 833.43 663.63 983.81 663.63 983.81 822.5 1124.4 822.5 1124.4 604.74 1279.54 546.02 1279.54 731.68 1314.92 731.68 1314.92 484.44 1470.07 535.85 1470.07 907.21 1666.28 907.21 1666.28 1126.56 1739.59 1126.56 1739.59 1181.81 1907.99 1181.81 1907.99 1086.66 2004.67 1086.66 2004.67 828.1 2124.1 828.1 2124.1 1305.4 2243.53 1305.4 2243.53 1720.73 2124.1 1720.73 2021.73 1720.73 2004.67 1720.73 1907.99 1720.73 1853.34 1720.73 1765.8 1720.73 1739.59 1720.73 1666.28 1720.73 1597.41 1720.73 1470.07 1720.73 1431.07 1720.73 1353.48 1720.73 1314.92 1720.73 1279.54 1720.73 1198.33 1720.73 1143.05 1720.73 1124.4 1720.73 983.81 1720.73 835.94 1720.73 833.43 1720.73 805.38 1720.73 685.56 1720.73 685.56 914.89 805.38 914.89"/><rect class="cls-5" x="1342.22" y="554.66" width="104.66" height="38.33" transform="translate(2789.11 1147.64) rotate(180)"/><rect class="cls-5" x="1342.22" y="626.66" width="104.66" height="38.33" transform="translate(2789.11 1291.64) rotate(180)"/><rect class="cls-5" x="1342.22" y="691.43" width="104.66" height="38.33" transform="translate(2789.11 1421.19) rotate(180)"/><rect class="cls-5" x="2002.46" y="1002.3" width="121.64" height="59.16"/><rect class="cls-5" x="2003.62" y="1183.89" width="120.48" height="59.16"/><rect class="cls-5" x="2003.62" y="1273.25" width="120.48" height="59.16"/><rect class="cls-5" x="2005.58" y="1366.75" width="120.48" height="59.16" transform="translate(4131.65 2792.66) rotate(180)"/><rect class="cls-5" x="2005.58" y="1458.32" width="120.48" height="59.16"/><rect class="cls-5" x="2005.58" y="1551.81" width="120.48" height="59.16" transform="translate(4131.65 3162.78) rotate(180)"/><rect class="cls-5" x="1149.04" y="691.43" width="110.08" height="38.33"/><rect class="cls-5" x="1149.04" y="627.24" width="110.08" height="38.33"/><rect class="cls-5" x="1149.04" y="754.24" width="300.51" height="38.33"/><rect class="cls-5" x="1149.04" y="811.87" width="300.51" height="38.33"/><rect class="cls-5" x="1149.04" y="869.11" width="300.51" height="36.86"/><rect class="cls-5" x="2003.62" y="1094.52" width="120.48" height="59.16"/><rect class="cls-5" x="1609.93" y="943.16" width="26.3" height="37.07"/><rect class="cls-5" x="1560.75" y="943.16" width="26.3" height="37.07"/><rect class="cls-5" x="1512.67" y="943.16" width="26.3" height="37.07"/><rect class="cls-5" x="1467.08" y="943.16" width="26.3" height="37.07"/><rect class="cls-5" x="1420.62" y="943.16" width="26.3" height="37.07"/><rect class="cls-5" x="1373.62" y="943.16" width="26.3" height="37.07"/><rect class="cls-5" x="1324.44" y="943.16" width="26.3" height="37.07"/><rect class="cls-5" x="1276.36" y="943.16" width="26.3" height="37.07"/><rect class="cls-5" x="1230.77" y="943.16" width="26.3" height="37.07"/><rect class="cls-5" x="1184.31" y="943.16" width="26.3" height="37.07"/><rect class="cls-5" x="1135.89" y="943.16" width="26.3" height="37.07"/><rect class="cls-5" x="1086.7" y="943.16" width="26.3" height="37.07"/><rect class="cls-5" x="1038.62" y="943.16" width="26.3" height="37.07"/><rect class="cls-5" x="993.04" y="943.16" width="26.3" height="37.07"/><rect class="cls-5" x="946.57" y="943.16" width="26.3" height="37.07"/><rect class="cls-5" x="899.58" y="943.16" width="26.3" height="37.07"/><rect class="cls-5" x="850.39" y="943.16" width="26.3" height="37.07"/><rect class="cls-5" x="802.31" y="943.16" width="26.3" height="37.07"/><rect class="cls-5" x="756.72" y="943.16" width="26.3" height="37.07"/><rect class="cls-5" x="710.26" y="943.16" width="26.3" height="37.07"/><rect class="cls-5" x="1609.93" y="1008.57" width="26.3" height="37.07"/><rect class="cls-5" x="1560.75" y="1008.57" width="26.3" height="37.07"/><rect class="cls-5" x="1512.67" y="1008.57" width="26.3" height="37.07"/><rect class="cls-5" x="1467.08" y="1008.57" width="26.3" height="37.07"/><rect class="cls-5" x="1420.62" y="1008.57" width="26.3" height="37.07"/><rect class="cls-5" x="1373.62" y="1008.57" width="26.3" height="37.07"/><rect class="cls-5" x="1324.44" y="1008.57" width="26.3" height="37.07"/><rect class="cls-5" x="1276.36" y="1008.57" width="26.3" height="37.07"/><rect class="cls-5" x="1230.77" y="1008.57" width="26.3" height="37.07"/><rect class="cls-5" x="1184.31" y="1008.57" width="26.3" height="37.07"/><rect class="cls-5" x="1135.89" y="1008.57" width="26.3" height="37.07"/><rect class="cls-5" x="1086.7" y="1008.57" width="26.3" height="37.07"/><rect class="cls-5" x="1038.62" y="1008.57" width="26.3" height="37.07"/><rect class="cls-5" x="993.04" y="1008.57" width="26.3" height="37.07"/><rect class="cls-5" x="946.57" y="1008.57" width="26.3" height="37.07"/><rect class="cls-5" x="899.58" y="1008.57" width="26.3" height="37.07"/><rect class="cls-5" x="850.39" y="1008.57" width="26.3" height="37.07"/><rect class="cls-5" x="802.31" y="1008.57" width="26.3" height="37.07"/><rect class="cls-5" x="756.72" y="1008.57" width="26.3" height="37.07"/><rect class="cls-5" x="710.26" y="1008.57" width="26.3" height="37.07"/><rect class="cls-5" x="1609.93" y="1072.99" width="26.3" height="37.07"/><rect class="cls-5" x="1560.75" y="1072.99" width="26.3" height="37.07"/><rect class="cls-5" x="1512.67" y="1072.99" width="26.3" height="37.07"/><rect class="cls-5" x="1467.08" y="1072.99" width="26.3" height="37.07"/><rect class="cls-5" x="1420.62" y="1072.99" width="26.3" height="37.07"/><rect class="cls-5" x="1373.62" y="1072.99" width="26.3" height="37.07"/><rect class="cls-5" x="1324.44" y="1072.99" width="26.3" height="37.07"/><rect class="cls-5" x="1276.36" y="1072.99" width="26.3" height="37.07"/><rect class="cls-5" x="1230.77" y="1072.99" width="26.3" height="37.07"/><rect class="cls-5" x="1184.31" y="1072.99" width="26.3" height="37.07"/><rect class="cls-5" x="1135.89" y="1072.99" width="26.3" height="37.07"/><rect class="cls-5" x="1086.7" y="1072.99" width="26.3" height="37.07"/><rect class="cls-5" x="1038.62" y="1072.99" width="26.3" height="37.07"/><rect class="cls-5" x="993.04" y="1072.99" width="26.3" height="37.07"/><rect class="cls-5" x="946.57" y="1072.99" width="26.3" height="37.07"/><rect class="cls-5" x="899.58" y="1072.99" width="26.3" height="37.07"/><rect class="cls-5" x="850.39" y="1072.99" width="26.3" height="37.07"/><rect class="cls-5" x="802.31" y="1072.99" width="26.3" height="37.07"/><rect class="cls-5" x="756.72" y="1072.99" width="26.3" height="37.07"/><rect class="cls-5" x="710.26" y="1072.99" width="26.3" height="37.07"/><rect class="cls-5" x="1609.93" y="1141.43" width="26.3" height="37.07"/><rect class="cls-5" x="1560.75" y="1141.43" width="26.3" height="37.07"/><rect class="cls-5" x="1512.67" y="1141.43" width="26.3" height="37.07"/><rect class="cls-5" x="1467.08" y="1141.43" width="26.3" height="37.07"/><rect class="cls-5" x="1420.62" y="1141.43" width="26.3" height="37.07"/><rect class="cls-5" x="1373.62" y="1141.43" width="26.3" height="37.07"/><rect class="cls-5" x="1324.44" y="1141.43" width="26.3" height="37.07"/><rect class="cls-5" x="1276.36" y="1141.43" width="26.3" height="37.07"/><rect class="cls-5" x="1230.77" y="1141.43" width="26.3" height="37.07"/><rect class="cls-5" x="1184.31" y="1141.43" width="26.3" height="37.07"/><rect class="cls-5" x="1135.89" y="1141.43" width="26.3" height="37.07"/><rect class="cls-5" x="1086.7" y="1141.43" width="26.3" height="37.07"/><rect class="cls-5" x="1038.62" y="1141.43" width="26.3" height="37.07"/><rect class="cls-5" x="993.04" y="1141.43" width="26.3" height="37.07"/><rect class="cls-5" x="946.57" y="1141.43" width="26.3" height="37.07"/><rect class="cls-5" x="899.58" y="1141.43" width="26.3" height="37.07"/><rect class="cls-5" x="850.39" y="1141.43" width="26.3" height="37.07"/><rect class="cls-5" x="802.31" y="1141.43" width="26.3" height="37.07"/><rect class="cls-5" x="756.72" y="1141.43" width="26.3" height="37.07"/><rect class="cls-5" x="710.26" y="1141.43" width="26.3" height="37.07"/><rect class="cls-5" x="1609.93" y="1206.84" width="26.3" height="37.07"/><rect class="cls-5" x="1560.75" y="1206.84" width="26.3" height="37.07"/><rect class="cls-5" x="1512.67" y="1206.84" width="26.3" height="37.07"/><rect class="cls-5" x="1467.08" y="1206.84" width="26.3" height="37.07"/><rect class="cls-5" x="1420.62" y="1206.84" width="26.3" height="37.07"/><rect class="cls-5" x="1373.62" y="1206.84" width="26.3" height="37.07"/><rect class="cls-5" x="1324.44" y="1206.84" width="26.3" height="37.07"/><rect class="cls-5" x="1276.36" y="1206.84" width="26.3" height="37.07"/><rect class="cls-5" x="1230.77" y="1206.84" width="26.3" height="37.07"/><rect class="cls-5" x="1184.31" y="1206.84" width="26.3" height="37.07"/><rect class="cls-5" x="1135.89" y="1206.84" width="26.3" height="37.07"/><rect class="cls-5" x="1086.7" y="1206.84" width="26.3" height="37.07"/><rect class="cls-5" x="1038.62" y="1206.84" width="26.3" height="37.07"/><rect class="cls-5" x="993.04" y="1206.84" width="26.3" height="37.07"/><rect class="cls-5" x="946.57" y="1206.84" width="26.3" height="37.07"/><rect class="cls-5" x="899.58" y="1206.84" width="26.3" height="37.07"/><rect class="cls-5" x="850.39" y="1206.84" width="26.3" height="37.07"/><rect class="cls-5" x="756.72" y="1206.84" width="26.3" height="37.07"/><rect class="cls-5" x="802.31" y="1206.84" width="26.3" height="37.07"/><rect class="cls-5" x="710.26" y="1206.84" width="26.3" height="37.07"/><rect class="cls-5" x="1609.93" y="1271.26" width="26.3" height="37.07"/><rect class="cls-5" x="1560.75" y="1271.26" width="26.3" height="37.07"/><rect class="cls-5" x="1512.67" y="1271.26" width="26.3" height="37.07"/><rect class="cls-5" x="1467.08" y="1271.26" width="26.3" height="37.07"/><rect class="cls-5" x="1420.62" y="1271.26" width="26.3" height="37.07"/><rect class="cls-5" x="1373.62" y="1271.26" width="26.3" height="37.07"/><rect class="cls-5" x="1324.44" y="1271.26" width="26.3" height="37.07"/><rect class="cls-5" x="1276.36" y="1271.26" width="26.3" height="37.07"/><rect class="cls-5" x="1230.77" y="1271.26" width="26.3" height="37.07"/><rect class="cls-5" x="1184.31" y="1271.26" width="26.3" height="37.07"/><rect class="cls-5" x="1135.89" y="1271.26" width="26.3" height="37.07"/><rect class="cls-5" x="1086.7" y="1271.26" width="26.3" height="37.07"/><rect class="cls-5" x="1038.62" y="1271.26" width="26.3" height="37.07"/><rect class="cls-5" x="993.04" y="1271.26" width="26.3" height="37.07"/><rect class="cls-5" x="946.57" y="1271.26" width="26.3" height="37.07"/><rect class="cls-5" x="899.58" y="1271.26" width="26.3" height="37.07"/><rect class="cls-5" x="850.39" y="1271.26" width="26.3" height="37.07"/><rect class="cls-5" x="756.72" y="1271.26" width="26.3" height="37.07"/><rect class="cls-5" x="710.26" y="1271.26" width="26.3" height="37.07"/><rect class="cls-5" x="431.28" y="1197.98" width="58.51" height="395.84"/><rect class="cls-6" x="489.79" y="1438.64" width="62.81" height="274.95" transform="translate(1042.39 3152.23) rotate(180)"/><polygon class="cls-5" points="1865.2 1086.49 1865.2 1009.38 1862.04 1009.38 1862.04 1086.49 1818.64 1086.49 1818.64 1181.65 1908 1181.65 1908 1086.49 1865.2 1086.49"/><polygon class="cls-5" points="2124.1 887.37 2124.1 828.21 2098.96 828.21 2098.96 802.46 2095.79 802.46 2095.79 828.21 2004.13 828.21 2002.46 828.21 1985.12 828.21 1985.12 802.46 1981.95 802.46 1981.95 828.21 1959.71 828.21 1959.71 1086.74 2004.13 1086.74 2004.13 975.35 2124.1 975.35 2124.1 916.19 2004.13 916.19 2004.13 887.37 2124.1 887.37"/><polygon class="cls-4" points="825.29 1255.59 825.29 1589.28 489.79 1589.28 489.79 1197.98 825.29 1255.59"/><rect class="cls-4" x="406.74" y="1437.61" width="418.55" height="281.48" transform="translate(1232.03 3156.7) rotate(180)"/><rect class="cls-5" x="406.74" y="1271.02" width="418.55" height="91.49" transform="translate(1232.03 2633.52) rotate(180)"/><rect class="cls-5" x="775.3" y="1513.93" width="21.5" height="30.3"/><rect class="cls-5" x="735.1" y="1513.93" width="21.5" height="30.3"/><rect class="cls-5" x="695.8" y="1513.93" width="21.5" height="30.3"/><rect class="cls-5" x="658.54" y="1513.93" width="21.5" height="30.3"/><rect class="cls-5" x="620.57" y="1513.93" width="21.5" height="30.3"/><rect class="cls-5" x="582.16" y="1513.93" width="21.5" height="30.3"/><rect class="cls-5" x="541.96" y="1513.93" width="21.5" height="30.3"/><rect class="cls-5" x="502.66" y="1513.93" width="21.5" height="30.3"/><rect class="cls-5" x="465.4" y="1513.93" width="21.5" height="30.3"/><rect class="cls-5" x="427.42" y="1513.93" width="21.5" height="30.3"/><rect class="cls-5" x="775.3" y="1567.4" width="21.5" height="30.3"/><rect class="cls-5" x="735.1" y="1567.4" width="21.5" height="30.3"/><rect class="cls-5" x="695.8" y="1567.4" width="21.5" height="30.3"/><rect class="cls-5" x="658.54" y="1567.4" width="21.5" height="30.3"/><rect class="cls-5" x="620.57" y="1567.4" width="21.5" height="30.3"/><rect class="cls-5" x="582.16" y="1567.4" width="21.5" height="30.3"/><rect class="cls-5" x="541.96" y="1567.4" width="21.5" height="30.3"/><rect class="cls-5" x="502.66" y="1567.4" width="21.5" height="30.3"/><rect class="cls-5" x="465.4" y="1567.4" width="21.5" height="30.3"/><rect class="cls-5" x="427.42" y="1567.4" width="21.5" height="30.3"/><rect class="cls-5" x="775.3" y="1406.19" width="21.5" height="30.3"/><rect class="cls-5" x="735.1" y="1406.19" width="21.5" height="30.3"/><rect class="cls-5" x="695.8" y="1406.19" width="21.5" height="30.3"/><rect class="cls-5" x="658.54" y="1406.19" width="21.5" height="30.3"/><rect class="cls-5" x="620.57" y="1406.19" width="21.5" height="30.3"/><rect class="cls-5" x="582.16" y="1406.19" width="21.5" height="30.3"/><rect class="cls-5" x="541.96" y="1406.19" width="21.5" height="30.3"/><rect class="cls-5" x="502.66" y="1406.19" width="21.5" height="30.3"/><rect class="cls-5" x="775.3" y="1459.66" width="21.5" height="30.3"/><rect class="cls-5" x="735.1" y="1459.66" width="21.5" height="30.3"/><rect class="cls-5" x="695.8" y="1459.66" width="21.5" height="30.3"/><rect class="cls-5" x="658.54" y="1459.66" width="21.5" height="30.3"/><rect class="cls-5" x="620.57" y="1459.66" width="21.5" height="30.3"/><rect class="cls-5" x="582.16" y="1459.66" width="21.5" height="30.3"/><rect class="cls-5" x="541.96" y="1459.66" width="21.5" height="30.3"/><rect class="cls-5" x="502.66" y="1459.66" width="21.5" height="30.3"/><rect class="cls-5" x="465.4" y="1459.66" width="21.5" height="30.3"/><rect class="cls-5" x="427.42" y="1459.66" width="21.5" height="30.3"/><rect class="cls-5" x="775.3" y="1620.05" width="21.5" height="30.3"/><rect class="cls-5" x="735.1" y="1620.05" width="21.5" height="30.3"/><rect class="cls-5" x="695.8" y="1620.05" width="21.5" height="30.3"/><rect class="cls-5" x="658.54" y="1620.05" width="21.5" height="30.3"/><rect class="cls-5" x="620.57" y="1620.05" width="21.5" height="30.3"/><rect class="cls-5" x="582.16" y="1620.05" width="21.5" height="30.3"/><rect class="cls-5" x="541.96" y="1620.05" width="21.5" height="30.3"/><rect class="cls-5" x="502.66" y="1620.05" width="21.5" height="30.3"/><rect class="cls-5" x="465.4" y="1620.05" width="21.5" height="30.3"/><rect class="cls-5" x="427.42" y="1620.05" width="21.5" height="30.3"/><rect class="cls-4" x="512.29" y="1135.14" width="6.2" height="79.34"/><rect class="cls-4" x="775.3" y="1296.72" width="18.06" height="31.25"/><rect class="cls-4" x="595.97" y="1296.72" width="18.06" height="31.25"/><rect class="cls-4" x="453.31" y="1296.72" width="18.06" height="31.25"/><rect class="cls-5" x="1337.59" y="1366.75" width="602.34" height="352.34"/><rect class="cls-4" x="1361.22" y="1402.87" width="32.12" height="49.03"/><rect class="cls-4" x="1417.85" y="1402.87" width="32.12" height="49.03"/><rect class="cls-4" x="1474.86" y="1402.87" width="32.12" height="49.03"/><rect class="cls-4" x="1531.49" y="1402.87" width="32.12" height="49.03"/><rect class="cls-4" x="1589.81" y="1402.87" width="32.12" height="49.03"/><rect class="cls-4" x="1646.44" y="1402.87" width="32.12" height="49.03"/><rect class="cls-4" x="1703.45" y="1402.87" width="32.12" height="49.03"/><rect class="cls-4" x="1760.08" y="1402.87" width="32.12" height="49.03"/><rect class="cls-4" x="1819.48" y="1402.87" width="32.12" height="49.03"/><rect class="cls-4" x="1876.11" y="1402.87" width="32.12" height="49.03"/><rect class="cls-4" x="1361.22" y="1475.38" width="32.12" height="49.03"/><rect class="cls-4" x="1417.85" y="1475.38" width="32.12" height="49.03"/><rect class="cls-4" x="1474.86" y="1475.38" width="32.12" height="49.03"/><rect class="cls-4" x="1531.49" y="1475.38" width="32.12" height="49.03"/><rect class="cls-4" x="1589.81" y="1475.38" width="32.12" height="49.03"/><rect class="cls-4" x="1646.44" y="1475.38" width="32.12" height="49.03"/><rect class="cls-4" x="1703.45" y="1475.38" width="32.12" height="49.03"/><rect class="cls-4" x="1760.08" y="1475.38" width="32.12" height="49.03"/><rect class="cls-4" x="1819.48" y="1475.38" width="32.12" height="49.03"/><rect class="cls-4" x="1876.11" y="1475.38" width="32.12" height="49.03"/><rect class="cls-4" x="1361.22" y="1553.28" width="32.12" height="49.03"/><rect class="cls-4" x="1417.85" y="1553.28" width="32.12" height="49.03"/><rect class="cls-4" x="1474.86" y="1553.28" width="32.12" height="49.03"/><rect class="cls-4" x="1531.49" y="1553.28" width="32.12" height="49.03"/><rect class="cls-4" x="1589.81" y="1553.28" width="32.12" height="49.03"/><rect class="cls-4" x="1646.44" y="1553.28" width="32.12" height="49.03"/><rect class="cls-4" x="1703.45" y="1553.28" width="32.12" height="49.03"/><rect class="cls-4" x="1760.08" y="1553.28" width="32.12" height="49.03"/><rect class="cls-4" x="1819.48" y="1553.28" width="32.12" height="49.03"/><rect class="cls-4" x="1876.11" y="1553.28" width="32.12" height="49.03"/><rect class="cls-4" x="1361.22" y="1625.8" width="32.12" height="49.03"/><rect class="cls-4" x="1417.85" y="1625.8" width="32.12" height="49.03"/><rect class="cls-4" x="1474.86" y="1625.8" width="32.12" height="49.03"/><rect class="cls-4" x="1531.49" y="1625.8" width="32.12" height="49.03"/><rect class="cls-4" x="1589.81" y="1625.8" width="32.12" height="49.03"/><rect class="cls-4" x="1646.44" y="1625.8" width="32.12" height="49.03"/><rect class="cls-4" x="1703.45" y="1625.8" width="32.12" height="49.03"/><rect class="cls-4" x="1760.08" y="1625.8" width="32.12" height="49.03"/><rect class="cls-4" x="1819.48" y="1625.8" width="32.12" height="49.03"/><rect class="cls-4" x="1876.11" y="1625.8" width="32.12" height="49.03"/><polygon class="cls-5" points="1732.43 1382.84 1858.12 1382.84 1858.12 1273.25 1732.43 1321.38 1732.43 1382.84"/><polygon class="cls-5" points="1112.94 1719.09 825.29 1719.09 825.29 1406.19 1112.94 1505.77 1112.94 1719.09"/><rect class="cls-4" x="832.89" y="1516.13" width="272.45" height="9.67"/><rect class="cls-4" x="832.89" y="1547.21" width="272.45" height="9.67"/><rect class="cls-4" x="832.89" y="1578.29" width="272.45" height="9.67"/><rect class="cls-4" x="832.89" y="1609.37" width="272.45" height="9.67"/><rect class="cls-4" x="832.89" y="1640.44" width="272.45" height="9.67"/><rect class="cls-4" x="832.89" y="1671.52" width="272.45" height="9.67"/><rect class="cls-5" x="1858.12" y="1273.25" width="24.17" height="93.5"/><rect class="cls-4" x="1790.99" y="1311.71" width="32.12" height="49.03" transform="translate(3143.27 -470.82) rotate(90)"/><rect class="cls-5" x="851.02" y="676.68" width="16.67" height="141.4"/><rect class="cls-5" x="884.17" y="676.68" width="16.67" height="141.4"/><rect class="cls-5" x="916.87" y="676.68" width="16.67" height="141.4"/><rect class="cls-5" x="950.72" y="676.68" width="16.67" height="141.4"/><polygon class="cls-7" points="1900.27 1635.19 373.27 1635.19 435.27 1406.19 1900.27 1406.19 1900.27 1635.19"/><path class="cls-8" d="M844.28,733.71c-116.74,0-211.39,95.14-211.39,212.5s211.39,328.27,211.39,328.27,211.39-210.91,211.39-328.27S961,733.71,844.28,733.71Zm0,338.29c-79.21,0-143.42-64.55-143.42-144.18s64.21-144.18,143.42-144.18,143.43,64.55,143.43,144.18S923.5,1072,844.28,1072Z"/><g id="man"><path class="cls-9" d="M2412.66,1681.6c-2.38,8-13.38,13.38-14.86,23.19-1.16,7.61-5,12.53-9.15,14.36h-29.51c-.7-1.87-1.59-6.53,5.93-8.18,9.52-2.09,13.1-13.62,12.51-24.32a139.58,139.58,0,0,1,.09-14c.3-6.13.8-10.94.8-10.94l20.22-4.76,2.12,2.73,2,2.62S2415,1673.57,2412.66,1681.6Z"/><path class="cls-9" d="M2251.49,1719.15h-69.42c.81-2.51,3.26-6.46,10.58-7.64,10.66-1.72,29.13-7.93,33.25-21.55.13-.44.25-.88.35-1.34,3.27-14.57,27.05,4.46,27.05,4.46s.07.58.17,1.56C2254,1699.74,2255.31,1715.76,2251.49,1719.15Z"/><path class="cls-10" d="M2195.48,1329.87s3.61,45.07,7.86,99.24c5.77,73.6,12.71,164,13.39,181.12,1.19,29.74,5.95,77.31,5.95,77.31s11.3,11.3,33.9,6.54c0,0,20.14-67.91,25.89-139.75l.27-3.55c5.35-73.14,13.67-227.16,13.67-227.16Z"/><path class="cls-9" d="M2195.48,1329.87s3.61,45.07,7.86,99.24l79.13,125.22.27-3.55c5.35-73.14,13.67-227.16,13.67-227.16Z"/><path class="cls-10" d="M2212,1335.22s65.11,163.23,107.92,239.93,56.19,98.12,56.19,98.12,24.53-9.81,26.76-16.5c0,0-16.37-148.09-45-184.19-16.2-20.4-35.23-81.61-36.12-103s-5.8-63.77-5.8-63.77Z"/><path class="cls-11" d="M2146.13,1290.16l-3.72,7.42s-18.93,2.64-13.72,22.37c0,0,2.81,8.12,8,5.55s2.64-2.35,10.12-5.81,11.81-10.1,10.14-16.19l1.2-6.46Z"/><path class="cls-12" d="M2245.37,1083.26c-2.89-17.09-3-27.22-3-27.22l33-26.63c-1.22,36.61,22.23,54.22,22.23,54.22s-44,21.67-69.47,13.64A61,61,0,0,1,2245.37,1083.26Z"/><path class="cls-11" d="M2234.6,1055.43s42,7,46-19.25,12-43-14.64-48.58-33.4,3.66-36.85,12.1S2223.77,1052.94,2234.6,1055.43Z"/><path class="cls-9" d="M2280.3,1038s-.85-35.15-39.14-40.79c-26.23-3.87-10.35-25.78-7.35-29.26,0,0,20.05,3.83,40.57,8.33C2317.46,985.73,2284.85,1032.76,2280.3,1038Z"/><path class="cls-13" d="M2150.54,1300.47a71.66,71.66,0,0,1-9.79-13.27s47.75-59.33,51.63-65.48,32.88-104.84,32.88-104.84L2298.6,1102s-61.21,126.29-71.35,141.69c-16.76,25.44-66.9,63.3-66.9,63.3A30.07,30.07,0,0,1,2150.54,1300.47Z"/><path class="cls-14" d="M2192.67,1333.62a4.12,4.12,0,0,0,2.68,1c9.55-.13,37.41,5.18,61,2.76,19.87-1.91,37.47-7.8,56.36-16.27,2.5-1.12,8.28-4.2,8.15-7-.08-3.07-.39-7.52-.77-13.13-1.34-19.5-3.67-53-1.4-91.73.41-7.2.62-14.35.65-21.39.2-52.44-10.1-99.29-31-114.9-1.78-1.28-12.84,4.8-22.91,9.77a41.64,41.64,0,0,1-27.39,3.31l-8.79,7.77c-10.7,9.94-22.42,23.45-27.52,44-4.34,17.45-6.88,48.93-8.28,81.55-.64,14.78-1.15,29.69-1.28,43.83v.51c-.13,1.4-.13,2.93-.13,4.33C2191.52,1304.31,2192,1333.11,2192.67,1333.62Z"/><path class="cls-13" d="M2320.08,1301c-1.34-19.5-3.67-53-1.4-91.73.41-7.2.62-14.35.65-21.39-8.7-21.11-15.82-36.43-15.82-36.43h-21.94S2265.49,1261.31,2320.08,1301Z"/><path class="cls-15" d="M2490.22,1401.84l-17-54.81A31.44,31.44,0,0,0,2434,1326.4l-126.47,39.31a31.43,31.43,0,0,0-20.62,39.23l17,54.81a31.43,31.43,0,0,0,39.23,20.62l126.47-39.31A31.43,31.43,0,0,0,2490.22,1401.84Z"/><path class="cls-16" d="M2507.07,1397.26l-17.23-55.45a31.55,31.55,0,0,0-39.37-20.7L2407,1334.62l-3.67-11.82a10.41,10.41,0,0,0-13-6.84l-2.48.77-22.62,7-12.67,3.94a10.4,10.4,0,0,0-6.83,13l3.67,11.82-25.18,7.83a28.6,28.6,0,0,0-2.82,1h-.05l-.13.06a31.54,31.54,0,0,0-17.7,38.26l17.23,55.45a31.57,31.57,0,0,0,32.66,22h0a30.9,30.9,0,0,0,6.69-1.3l.06,0,126.19-39.22A31.54,31.54,0,0,0,2507.07,1397.26Zm-151.46-46.67-3.67-11.82a3.87,3.87,0,0,1,2.55-4.85l12.31-3.83,21-6.54,4.42-1.37a3.83,3.83,0,0,1,1.15-.18,3.88,3.88,0,0,1,3.7,2.73l3.68,11.82Z"/><path class="cls-11" d="M2362.76,1307.82l4.17,7.18s-8.16,17.28,11.19,23.73c0,0,8.33,2.11,9-3.67s-.51-3.5.7-11.65-2-15.41-8-17.35l-4.75-4.54Z"/><path class="cls-14" d="M2373.8,1309.78a72,72,0,0,1-16.46.92s-23.46-72.46-26.47-79.07-69.67-85-69.67-85l27.76-69.49s72.09,120.42,79.41,137.34c12.1,28,16.29,90.65,16.29,90.65A30.21,30.21,0,0,1,2373.8,1309.78Z"/></g><path class="cls-17" d="M1204.73,1182h0l-.13,0Z"/><path class="cls-17" d="M766.16,1354.68h0q34.33-1.28,71.4-1.31s136.77-118.7,295-159.09C969.87,1234.45,766.16,1354.68,766.16,1354.68Z"/><path class="cls-16" d="M2004.91,1443.78v-131s-153.74-17.57-246.72-51.24C1543,1182.42,1427.27,1181,1231.8,1181c-148.41,0-298.72,99.39-362.5,147.25a128.72,128.72,0,0,1-74.44,25.63c-234.77,5.15-379.9,52-452,83.65a93,93,0,0,0-55.52,85.18v44.12h0a8.78,8.78,0,0,0-8.78,8.78v73.22a8.78,8.78,0,0,0,8.78,8.78h140.1a164,164,0,0,1-20.77-84.36c2.19-87.38,73.56-158.54,160.94-160.47a164.71,164.71,0,0,1,147.64,244.83h862a164,164,0,0,1-20.76-84.36c2.19-87.38,73.56-158.54,160.94-160.47a164.71,164.71,0,0,1,147.64,244.83h34.42c119.11,0,136-121.81,137.11-181.54A31.68,31.68,0,0,0,2004.91,1443.78Z"/><path class="cls-17" d="M1156.34,1204.62c-136,34.41-281.81,152-281.81,152l386-8.25a39.68,39.68,0,0,0,35.14-23l59.14-127.64H1211.68A225.36,225.36,0,0,0,1156.34,1204.62Z"/><path class="cls-17" d="M1377.49,1200.72l-54.19,124.14a14.44,14.44,0,0,0,13.24,20.23c54.68,0,198.25-2,280.9-22.71,19.85-5,26.51-30,11.74-44.12C1595.6,1246,1522.57,1200.72,1377.49,1200.72Z"/><path class="cls-18" d="M297.41,1480.56h56.4S446,1394.48,594,1370.08C594,1370.08,320.63,1400.21,297.41,1480.56Z"/><path class="cls-18" d="M2004.91,1443.78H1990a21.61,21.61,0,0,1-19.56-12.35c-8.63-18.26-27.58-52.94-56.66-77.59-11.26-9.54-4.52-27.93,10.24-27.93h80.91Z"/><path class="cls-17" d="M1264.56,1384.85h-75a7.5,7.5,0,0,1-7.5-7.51h0a7.5,7.5,0,0,1,7.5-7.5h75a7.5,7.5,0,0,1,7.51,7.5h0A7.51,7.51,0,0,1,1264.56,1384.85Z"/><path class="cls-17" d="M1596.21,1384.85h-75a7.5,7.5,0,0,1-7.5-7.51h0a7.5,7.5,0,0,1,7.5-7.5h75a7.5,7.5,0,0,1,7.5,7.5h0A7.5,7.5,0,0,1,1596.21,1384.85Z"/><path class="cls-19" d="M1532.7,1433.53H856.33c-28,0-45.17,30.6-30.64,54.5l43.56,71.6a31.38,31.38,0,0,0,45,9.27C972.11,1527.67,1138.7,1442.13,1532.7,1433.53Z"/><path class="cls-20" d="M1945.14,573.82a125.66,125.66,0,0,0-125.66,125.66c0,69.4,125.66,194.12,125.66,194.12S2070.8,768.88,2070.8,699.48A125.66,125.66,0,0,0,1945.14,573.82Zm0,200a85.26,85.26,0,1,1,85.26-85.26A85.26,85.26,0,0,1,1945.14,773.87Z"/><rect class="cls-21" x="120.98" y="1719.15" width="2578.04" height="4.29" rx="2.07"/><path class="cls-16" d="M1285.85,1118.08h-34.69a10.75,10.75,0,0,0-10.11,7.11L1220.6,1182h76v-53.21A10.75,10.75,0,0,0,1285.85,1118.08Z"/><path class="cls-17" d="M1296.6,1181.13v-38.88h-14.88a24.28,24.28,0,0,0-22.87,16.12l-8.12,22.76Z"/><rect class="cls-17" x="1088.05" y="1452.8" width="51.33" height="51.33"/><rect class="cls-17" x="1139.39" y="1504.13" width="51.33" height="51.33"/><rect class="cls-17" x="1190.72" y="1452.8" width="51.33" height="51.33"/><rect class="cls-17" x="1242.05" y="1504.13" width="51.33" height="51.33"/><rect class="cls-17" x="1293.39" y="1452.8" width="51.33" height="51.33"/><path class="cls-22" d="M2071.9,1604.8h-33.46a22.4,22.4,0,0,1-22.38-22.37V1462.35a22.4,22.4,0,0,1,22.38-22.37h33.46a22.4,22.4,0,0,1,22.37,22.37v120.08A22.4,22.4,0,0,1,2071.9,1604.8ZM2038.44,1446a16.42,16.42,0,0,0-16.41,16.4v120.08a16.43,16.43,0,0,0,16.41,16.41h33.46a16.42,16.42,0,0,0,16.4-16.41V1462.35a16.42,16.42,0,0,0-16.4-16.4Z"/><path class="cls-22" d="M2078.75,1697.88h-5.09a10.49,10.49,0,1,0,0,21h5.09a10.49,10.49,0,0,0,0-21Z"/><circle class="cls-23" cx="2078.75" cy="1708.36" r="10.48" transform="translate(-495.53 925.54) rotate(-22.5)"/><path class="cls-22" d="M2014.11,1697.88H2009a10.49,10.49,0,1,0,0,21h5.09a10.49,10.49,0,0,0,0-21Z"/><circle class="cls-23" cx="2014.11" cy="1708.36" r="10.48" transform="translate(-500.45 900.81) rotate(-22.5)"/><rect class="cls-22" x="1992.57" y="1507.85" width="134.87" height="193.91" rx="35.36"/><rect class="cls-23" x="1964.23" y="1507.85" width="134.87" height="193.91" rx="35.36"/><path class="cls-24" d="M2038.87,1673.42h-64.14a35,35,0,0,0-9.5,1.31,35.36,35.36,0,0,0,34.36,27h64.14a35.11,35.11,0,0,0,9.51-1.31A35.38,35.38,0,0,0,2038.87,1673.42Z"/><path class="cls-22" d="M2080.14,1509.84h3.19v-2h-64.91a37.41,37.41,0,0,0-25.35,35.36v123.18a37.42,37.42,0,0,0,25.35,35.37h64.91v-2h-3.19a33.41,33.41,0,0,1-33.37-33.38V1543.21A33.41,33.41,0,0,1,2080.14,1509.84Zm-16.74,189.93h-33a33.41,33.41,0,0,1-33.37-33.38V1543.21a33.41,33.41,0,0,1,33.37-33.37h33a37.38,37.38,0,0,0-20.61,33.37v123.18A37.39,37.39,0,0,0,2063.4,1699.77Z"/><circle class="cls-25" cx="1722.51" cy="1577.46" r="143.27" transform="translate(-610.92 1680.03) rotate(-45)"/><path class="cls-26" d="M1722.51,1488.69a88.77,88.77,0,1,0,88.77,88.77A88.77,88.77,0,0,0,1722.51,1488.69Zm12.16,9.73a79.82,79.82,0,0,1,48.54,27l-30.77,19a44.47,44.47,0,0,0-17.77-9.86Zm-24.32,0v36.16a44.47,44.47,0,0,0-17.77,9.86l-30.77-19A79.82,79.82,0,0,1,1710.35,1498.42Zm-61.56,110a80.13,80.13,0,0,1,.16-62.38l30.75,19a44.41,44.41,0,0,0-.11,24.37Zm61.56,48a79.83,79.83,0,0,1-48.81-27.34l30.73-19a44.44,44.44,0,0,0,18.08,10.14Zm-8-79a20.15,20.15,0,1,1,20.15,20.15A20.16,20.16,0,0,1,1702.36,1577.46Zm32.31,79v-36.17a44.44,44.44,0,0,0,18.08-10.14l30.73,19A79.83,79.83,0,0,1,1734.67,1656.5Zm30.77-67.06a44.53,44.53,0,0,0-.12-24.37l30.75-19a80.13,80.13,0,0,1,.16,62.38Z"/><circle class="cls-25" cx="571.51" cy="1578.46" r="143.27" transform="translate(-948.75 866.44) rotate(-45)"/><path class="cls-26" d="M571.51,1489.69a88.77,88.77,0,1,0,88.77,88.77A88.77,88.77,0,0,0,571.51,1489.69Zm12.16,9.73a79.82,79.82,0,0,1,48.54,27l-30.77,19a44.47,44.47,0,0,0-17.77-9.86Zm-24.32,0v36.16a44.47,44.47,0,0,0-17.77,9.86l-30.77-19A79.82,79.82,0,0,1,559.35,1499.42Zm-61.56,110a80.13,80.13,0,0,1,.16-62.38l30.75,19a44.41,44.41,0,0,0-.11,24.37Zm61.56,48a79.83,79.83,0,0,1-48.81-27.34l30.73-19a44.44,44.44,0,0,0,18.08,10.14Zm-8-79a20.15,20.15,0,1,1,20.15,20.15A20.16,20.16,0,0,1,551.36,1578.46Zm32.31,79v-36.17a44.44,44.44,0,0,0,18.08-10.14l30.73,19A79.83,79.83,0,0,1,583.67,1657.5Zm30.77-67.06a44.53,44.53,0,0,0-.12-24.37l30.75-19a80.13,80.13,0,0,1,.16,62.38Z"/></g></g></svg>