<svg xmlns="http://www.w3.org/2000/svg" viewBox="0 0 81.08 57.78"><defs><style>.cls-1{fill:#31352c;}.cls-2{fill:#4589b5;}.cls-3{fill:#fff;}.cls-4{fill:#285b77;}.cls-5{fill:#b2b2b2;}.cls-6{fill:#ccc;}</style></defs><g id="Layer_2" data-name="Layer 2"><g id="Layer_1-2" data-name="Layer 1"><rect class="cls-1" x="2.32" y="45.94" width="11.26" height="11.84" rx="1.76"/><rect class="cls-1" x="67.09" y="45.94" width="11.26" height="11.84" rx="1.76"/><path class="cls-2" d="M80.73,31.1c-.51-5.18-3.87-8-9.75-12.72-2.72-2.19-4.12-8.19-6.25-12.8-1.51-3.26-3.8-5.1-7-5.29C54.8.11,47.68,0,40.54,0S26.29.11,23.39.29c-3.24.19-5.53,2-7,5.29-2.13,4.61-3.53,10.61-6.25,12.8C4.22,23.12.86,25.92.36,31.1A122.91,122.91,0,0,0,.19,47.34c.08,1.79,40.35,2.91,40.35,2.91s40.26-1,40.34-2.64A123.27,123.27,0,0,0,80.73,31.1Z"/><path class="cls-3" d="M62.88,7.89c-.82-2.06-2-4.53-5.58-5.12-1-.15-8.8-.27-16.76-.28s-15.79.13-16.76.28C20.15,3.36,19,5.83,18.2,7.89a69.09,69.09,0,0,0-2.63,9.32H65.51A69.09,69.09,0,0,0,62.88,7.89Z"/><path class="cls-3" d="M6.37,35c-1.09,0-3.51,0-2.71-3.78.66-3.14,1.26-4,2.93-4.05,3.3-.18,8.56-.4,11.2,1.76s6.05,5.88,2.15,6.07S10.14,35,6.37,35Z"/><path class="cls-3" d="M74.58,35c1.09,0,3.51,0,2.71-3.78-.66-3.14-1.26-4-2.93-4.05C71.07,27,65.8,26.8,63.16,29S57.11,34.84,61,35,70.81,35,74.58,35Z"/><path class="cls-4" d="M81,38s-16.57,1.11-40.5,1.11C17.31,39.06,0,37.43,0,37.43V49.05s16.68,1.2,40.54,1.2A403.44,403.44,0,0,0,81,48.51Z"/><path class="cls-1" d="M54.49,30.19c-2.57,0-8.42,0-13.77,0h-.13c-5.36,0-11.2,0-13.77,0-1.72,0-3.88,2.51-.4,5.76,1.85,1.74,8.19,2,14.17,2h.13c6,0,12.32-.26,14.17-2C58.36,32.7,56.21,30.17,54.49,30.19Z"/><path class="cls-5" d="M8,28.77a2.53,2.53,0,1,0,2.52,2.52A2.53,2.53,0,0,0,8,28.77Zm.33,4.43A2.15,2.15,0,0,1,8,32.08,2.24,2.24,0,0,1,9.38,30a1.91,1.91,0,0,1,.51,1.29A1.94,1.94,0,0,1,8.28,33.2Z"/><path class="cls-5" d="M13.89,29.5a2.16,2.16,0,1,0,2.16,2.16A2.16,2.16,0,0,0,13.89,29.5Zm.28,3.79a1.85,1.85,0,0,1-.27-1,1.92,1.92,0,0,1,1.22-1.78,1.65,1.65,0,0,1-.95,2.74Z"/><path class="cls-5" d="M73,28.77a2.53,2.53,0,1,1-2.52,2.52A2.53,2.53,0,0,1,73,28.77Zm-.32,4.43A2.22,2.22,0,0,0,71.6,30a1.91,1.91,0,0,0-.51,1.29A1.94,1.94,0,0,0,72.71,33.2Z"/><path class="cls-5" d="M67.09,29.5a2.16,2.16,0,1,1-2.16,2.16A2.16,2.16,0,0,1,67.09,29.5Zm-.28,3.79a1.85,1.85,0,0,0,.27-1,1.91,1.91,0,0,0-1.21-1.78,1.63,1.63,0,0,0-.44,1.11A1.66,1.66,0,0,0,66.81,33.29Z"/><path class="cls-2" d="M12.6,15.8s-1.62.58-2.13,0,0-3.51,0-3.51-7.33-.49-8.85,2.48C.5,17,3,18,4.31,18.14c1.85.13,7.42,0,7.42,0Z"/><path class="cls-2" d="M68.35,15.8s1.62.58,2.13,0,0-3.51,0-3.51,7.33-.49,8.85,2.48C80.45,17,78,18,76.64,18.14c-1.85.13-7.42,0-7.42,0Z"/><path class="cls-1" d="M52.41,41.19c-2.43-.69-7.91-.85-11.65-.89h-.22c-3.74,0-9.21.2-11.64.89s-4.55,2.27-4.58,5.39c0,1.42,1.88,1.94,5.33,1.93h22C55.1,48.52,57,48,57,46.58,57,43.46,55,41.93,52.41,41.19Z"/><polygon class="cls-6" points="40.54 42.47 31.57 42.47 31.57 46.73 40.54 46.73 49.52 46.73 49.52 42.47 40.54 42.47"/><path class="cls-4" d="M63,7.89c-.72-1.59-1.73-4.66-4.25-5.08-2.2-.36-15-.34-18.17-.33s-16,0-18.16.33c-2.51.42-3.53,3.49-4.25,5.08s-2.95,9.32-2.95,9.32H16.4s2-7.07,2.57-8.73c.77-2.23,1.87-4.52,4.12-5,2-.39,14.41-.48,17.52-.5s15.56.11,17.53.5c2.25.45,3.35,2.74,4.12,5,.58,1.66,2.57,8.73,2.57,8.73H66S63.74,9.49,63,7.89Z"/><path class="cls-1" d="M4,41.08V45.3C4,46.53,4,47.22,7,47.47c3.11.28,6.44.28,7.07.28,2,0,2.47-2.51.14-3.89a42.27,42.27,0,0,0-6.71-3.51C5.4,39.64,4,40,4,41.08Z"/><path class="cls-1" d="M77,41.08V45.3c0,1.23,0,1.92-2.93,2.17s-6.44.28-7.07.28c-2,0-2.47-2.51-.14-3.89a42.27,42.27,0,0,1,6.71-3.51C75.58,39.64,77,40,77,41.08Z"/></g></g></svg>