<svg xmlns="http://www.w3.org/2000/svg" viewBox="0 0 47.23 75.27"><defs><style>.cls-1{fill:#414545;}.cls-2{fill:#cecece;}.cls-3{fill:#7c7c7c;}.cls-4{fill:#fff;}.cls-5{fill:#4589b5;}.cls-6{fill:#22a871;}.cls-7{fill:#15935d;}.cls-8{fill:#285b77;}.cls-9{fill:#d10f1e;}.cls-10{fill:#e32c33;}</style></defs><g id="Layer_2" data-name="Layer 2"><g id="Layer_1-2" data-name="Layer 1"><rect width="43.47" height="75.27" rx="6.49"/><rect class="cls-1" x="3.76" width="43.47" height="75.27" rx="6.49"/><rect class="cls-2" x="7.33" y="8.94" width="36.46" height="55.27"/><path class="cls-3" d="M32.09,69.14a1.72,1.72,0,0,1-1.72,1.72H22.12a1.72,1.72,0,0,1-1.72-1.72h0a1.72,1.72,0,0,1,1.72-1.72h8.25a1.72,1.72,0,0,1,1.72,1.72Z"/><path class="cls-4" d="M28.18,4.47a1.59,1.59,0,1,1-1.59-1.59A1.59,1.59,0,0,1,28.18,4.47Z"/><rect class="cls-5" x="27.22" y="23.24" width="16.57" height="9.58"/><rect class="cls-6" x="7.33" y="8.94" width="14.9" height="23.88"/><rect class="cls-7" x="11.46" y="8.94" width="8.24" height="9.82"/><rect class="cls-7" x="7.33" y="21.51" width="12.38" height="8.58"/><rect class="cls-6" x="27.22" y="8.94" width="16.57" height="9.58"/><rect class="cls-7" x="30.04" y="8.94" width="8.27" height="6.88"/><polygon class="cls-6" points="28.03 37.37 43.79 37.37 43.79 64.21 28.03 37.37"/><polygon class="cls-7" points="32.95 39.94 43.79 39.94 43.79 49.34 38.37 49.34 32.95 39.94"/><polygon class="cls-5" points="37.85 64.21 7.33 64.21 7.33 37.44 22.31 37.44 37.85 64.21"/><polygon class="cls-8" points="15.29 49.73 24.57 46.29 20.4 39.41 11.7 42.14 15.29 49.73"/><polygon class="cls-8" points="29.32 54.59 20.42 58.1 24.13 64.21 34.99 64.21 29.32 54.59"/><polygon class="cls-2" points="28.03 47.3 7.33 55.06 7.33 60.4 30.41 51.39 28.03 47.3"/><path class="cls-4" d="M24.57,13.32a.25.25,0,0,0-.25.25v2a.25.25,0,0,0,.25.25.25.25,0,0,0,.25-.25v-2A.26.26,0,0,0,24.57,13.32Z"/><path class="cls-4" d="M24.57,9.32a.25.25,0,0,0-.25.25v2a.25.25,0,0,0,.25.25.25.25,0,0,0,.25-.25v-2A.26.26,0,0,0,24.57,9.32Z"/><path class="cls-4" d="M24.57,17.32a.25.25,0,0,0-.25.25v2a.25.25,0,0,0,.25.25.25.25,0,0,0,.25-.25v-2A.26.26,0,0,0,24.57,17.32Z"/><path class="cls-4" d="M24.57,21.32a.25.25,0,0,0-.25.25v2a.25.25,0,0,0,.25.25.25.25,0,0,0,.25-.25v-2A.26.26,0,0,0,24.57,21.32Z"/><path class="cls-4" d="M24.57,25.32a.25.25,0,0,0-.25.25v2a.25.25,0,0,0,.25.25.25.25,0,0,0,.25-.25v-2A.26.26,0,0,0,24.57,25.32Z"/><path class="cls-4" d="M24.57,29.32a.25.25,0,0,0-.25.25v2a.25.25,0,0,0,.25.25.25.25,0,0,0,.25-.25v-2A.26.26,0,0,0,24.57,29.32Z"/><path class="cls-4" d="M28.58,43a.24.24,0,0,0-.34-.08.25.25,0,0,0-.09.34l1,1.72a.25.25,0,0,0,.22.12.27.27,0,0,0,.12,0,.26.26,0,0,0,.09-.35Z"/><path class="cls-4" d="M36.74,56.74a.26.26,0,0,0-.35-.09.26.26,0,0,0-.08.35l1,1.72a.24.24,0,0,0,.22.12.19.19,0,0,0,.12,0,.25.25,0,0,0,.09-.34Z"/><path class="cls-4" d="M34.7,53.3a.26.26,0,0,0-.35-.09.25.25,0,0,0-.08.34l1,1.72a.25.25,0,0,0,.22.13.28.28,0,0,0,.12,0,.25.25,0,0,0,.09-.34Z"/><path class="cls-4" d="M39.79,61.9l-1-1.72a.26.26,0,0,0-.44.26l1,1.72a.26.26,0,0,0,.22.12.2.2,0,0,0,.13,0A.24.24,0,0,0,39.79,61.9Z"/><path class="cls-4" d="M32.66,49.86a.25.25,0,0,0-.43.25l1,1.72a.26.26,0,0,0,.22.13l.12,0a.25.25,0,0,0,.09-.34Z"/><path class="cls-4" d="M30.62,46.42a.25.25,0,1,0-.43.25l1,1.72a.23.23,0,0,0,.22.12.27.27,0,0,0,.12,0,.25.25,0,0,0,.09-.34Z"/><path class="cls-4" d="M26.54,39.53a.24.24,0,0,0-.34-.08.25.25,0,0,0-.09.34l1,1.72a.26.26,0,0,0,.22.12.24.24,0,0,0,.12,0,.26.26,0,0,0,.09-.35Z"/><path class="cls-4" d="M14,35H12a.25.25,0,0,0,0,.5h2a.25.25,0,1,0,0-.5Z"/><path class="cls-4" d="M18,35H16a.25.25,0,0,0,0,.5h2a.25.25,0,1,0,0-.5Z"/><path class="cls-4" d="M10,35H8a.25.25,0,0,0,0,.5h2a.25.25,0,1,0,0-.5Z"/><path class="cls-4" d="M22,35H20a.25.25,0,0,0,0,.5h2a.25.25,0,1,0,0-.5Z"/><path class="cls-4" d="M34,35H32a.25.25,0,0,0,0,.5h2a.25.25,0,0,0,0-.5Z"/><path class="cls-4" d="M38,35H36a.25.25,0,0,0,0,.5h2a.25.25,0,0,0,0-.5Z"/><path class="cls-4" d="M42,35H40a.25.25,0,0,0,0,.5h2a.25.25,0,0,0,0-.5Z"/><path class="cls-4" d="M30,35H28a.25.25,0,0,0,0,.5h2a.25.25,0,1,0,0-.5Z"/><path class="cls-4" d="M8,58.1a.26.26,0,0,1-.23-.16.24.24,0,0,1,.14-.32l1.85-.75a.26.26,0,0,1,.33.13.25.25,0,0,1-.14.33l-1.85.75Zm3.71-1.5a.25.25,0,0,1-.23-.16.24.24,0,0,1,.14-.32l1.85-.75a.25.25,0,0,1,.33.13.25.25,0,0,1-.14.33l-1.85.75Zm3.71-1.5a.25.25,0,0,1-.23-.16.24.24,0,0,1,.14-.32l1.85-.75a.25.25,0,0,1,.19.46l-1.86.75Zm3.71-1.5a.24.24,0,0,1-.23-.16.25.25,0,0,1,.13-.33l1.86-.75a.25.25,0,0,1,.32.14.26.26,0,0,1-.13.33l-1.86.75Zm3.7-1.5a.25.25,0,0,1-.09-.49l1.85-.75a.25.25,0,0,1,.33.14.26.26,0,0,1-.14.33l-1.85.75Zm3.71-1.51a.24.24,0,0,1-.23-.15.26.26,0,0,1,.14-.33l1.85-.75a.25.25,0,0,1,.33.14.26.26,0,0,1-.14.33l-1.85.75Z"/><path class="cls-4" d="M41.47,21.13h-2a.25.25,0,0,1,0-.5h2a.25.25,0,0,1,0,.5Zm-4,0h-2a.25.25,0,0,1,0-.5h2a.25.25,0,0,1,0,.5Zm-4,0h-2a.25.25,0,0,1,0-.5h2a.25.25,0,0,1,0,.5Zm-4,0h-2a.25.25,0,0,1,0-.5h2a.25.25,0,0,1,0,.5Z"/><path class="cls-9" d="M27.1,32.39a7,7,0,0,0,0-.8,6.76,6.76,0,0,0-13.51,0,5.79,5.79,0,0,0,.06.83c.56,5.76,6.7,12.7,6.7,12.7S26.57,38.42,27.1,32.39Z"/><rect class="cls-9" x="20.4" y="43.49" width="1.64" height="1.63"/><path class="cls-10" d="M28.74,32.39a7,7,0,0,0,.05-.8,6.75,6.75,0,1,0-13.5,0,7.7,7.7,0,0,0,.05.83c.57,5.76,6.7,12.7,6.7,12.7S28.21,38.42,28.74,32.39Z"/><path class="cls-4" d="M26.22,31.59A4.19,4.19,0,1,1,22,27.4,4.18,4.18,0,0,1,26.22,31.59Z"/></g></g></svg>