<svg xmlns="http://www.w3.org/2000/svg" viewBox="0 0 101.53 42.53"><defs><style>.cls-1{fill:#414545;}.cls-2{fill:#636363;}.cls-3{fill:#7c7c7c;}.cls-4{fill:#fff;}.cls-5{fill:#e32c33;}.cls-6{fill:#d10f1e;}.cls-7{fill:#cecece;}</style></defs><g id="Layer_2" data-name="Layer 2"><g id="Layer_1-2" data-name="Layer 1"><rect width="97.02" height="36.83"/><rect class="cls-1" x="7.8" width="93.73" height="36.83"/><rect class="cls-2" x="27.58" y="36.83" width="39.3" height="5.71"/><rect class="cls-3" x="35.17" y="36.83" width="40.35" height="5.71"/><rect x="11.01" y="7.54" width="87.44" height="18.94"/><path class="cls-4" d="M13.93,2.68h-1V2.15h2.67v.53h-1v3h-.62Z"/><path class="cls-4" d="M17.58,4.73H16.39l-.27,1h-.65l1.16-3.54h.74l1.15,3.54h-.67Zm-.14-.49-.13-.44c-.1-.37-.21-.78-.32-1.17h0c-.1.4-.2.8-.31,1.17l-.13.44Z"/><path class="cls-4" d="M19.57,3.86l-.94-1.71h.7l.39.78.27.54h0a5.72,5.72,0,0,1,.24-.54l.37-.78h.67l-.95,1.74,1,1.8h-.7l-.43-.84c-.09-.18-.18-.36-.28-.58h0c-.1.22-.18.4-.27.58l-.42.84h-.66Z"/><path class="cls-4" d="M21.86,2.15h.63V5.69h-.63Z"/><path class="cls-4" d="M24.49,2.15h.68l.64,1.74.24.67h0l.23-.67.62-1.74h.7V5.69H27V4.07c0-.33,0-.8.08-1.13h0l-.29.81-.61,1.61H25.9l-.61-1.61L25,2.94h0c0,.33.08.8.08,1.13V5.69h-.57Z"/><path class="cls-4" d="M28.51,2.15h2.13v.53h-1.5v.9h1.27v.53H29.14v1h1.55v.53H28.51Z"/><path class="cls-4" d="M32.12,2.68h-1V2.15h2.67v.53h-1v3h-.63Z"/><path class="cls-4" d="M34.35,2.15h2.13v.53H35v.9h1.27v.53H35v1h1.55v.53H34.35Z"/><path class="cls-4" d="M39.17,5.69,38.41,4.3h-.54V5.69h-.63V2.15h1.19c.74,0,1.31.26,1.31,1.05a1,1,0,0,1-.71,1l.84,1.48ZM37.87,3.8h.5c.49,0,.75-.2.75-.6s-.26-.55-.75-.55h-.5Z"/><rect class="cls-5" x="13.54" y="10.05" width="34.74" height="10.8"/><rect class="cls-5" x="51.89" y="10.05" width="34.18" height="10.8"/><rect class="cls-5" x="89.14" y="10.05" width="6.73" height="10.8"/><path class="cls-4" d="M98.45,4.37H42.27a.51.51,0,0,1-.5-.5.5.5,0,0,1,.5-.5H98.45a.5.5,0,0,1,.5.5A.51.51,0,0,1,98.45,4.37Z"/><path class="cls-4" d="M29.66,15.19v0a1.81,1.81,0,0,1-.87-1.47A1.71,1.71,0,0,1,30.69,12a1.67,1.67,0,0,1,1.85,1.7,1.92,1.92,0,0,1-.84,1.44v0a1.82,1.82,0,0,1,1.09,1.63c0,1-.85,1.71-2.13,1.71s-2.13-.71-2.13-1.73A1.87,1.87,0,0,1,29.66,15.19Zm1,2.53a.94.94,0,0,0,1-.94c0-.68-.66-.93-1.51-1.27a1.46,1.46,0,0,0-.69,1.17A1.07,1.07,0,0,0,30.68,17.72Zm.92-3.94a.89.89,0,0,0-.93-1,.81.81,0,0,0-.86.86c0,.63.56.91,1.27,1.18A1.54,1.54,0,0,0,31.6,13.78Z"/><path class="cls-4" d="M34.55,17a.77.77,0,1,1-.74.77A.74.74,0,0,1,34.55,17Z"/><path class="cls-4" d="M36.67,16.93a2.08,2.08,0,0,0,1.47.67,1.14,1.14,0,0,0,1.22-1.2,1.08,1.08,0,0,0-1.16-1.18,1.62,1.62,0,0,0-1,.36l-.54-.35.19-3.11H40.2v1H37.83l-.13,1.53a1.73,1.73,0,0,1,.83-.21,1.83,1.83,0,0,1,2,2,2.12,2.12,0,0,1-2.22,2.16,2.84,2.84,0,0,1-2.14-.87Z"/><path class="cls-4" d="M41.37,15.24c0-2.13.83-3.23,2.14-3.23s2.14,1.11,2.14,3.23-.83,3.29-2.14,3.29S41.37,17.37,41.37,15.24Zm3.19,0c0-1.78-.44-2.34-1.05-2.34s-1,.56-1,2.34.45,2.4,1,2.4S44.56,17,44.56,15.24Z"/><path class="cls-4" d="M71.14,16.91a2,2,0,0,0,1.49.69c.69,0,1.16-.35,1.16-1s-.42-1.07-1.85-1.07v-.83c1.24,0,1.64-.42,1.64-1a.82.82,0,0,0-.93-.84,1.8,1.8,0,0,0-1.26.59l-.59-.7A2.77,2.77,0,0,1,72.69,12c1.21,0,2,.59,2,1.66a1.52,1.52,0,0,1-1.1,1.44v0a1.61,1.61,0,0,1,1.31,1.56c0,1.15-1,1.82-2.21,1.82a2.69,2.69,0,0,1-2.13-.89Z"/><path class="cls-4" d="M76.79,17a.77.77,0,1,1-.74.77A.74.74,0,0,1,76.79,17Z"/><path class="cls-4" d="M78.52,17.75c1.75-1.69,2.85-2.8,2.85-3.76a1,1,0,0,0-1-1.08,1.71,1.71,0,0,0-1.22.7L78.47,13a2.59,2.59,0,0,1,2-1,1.84,1.84,0,0,1,2,1.92c0,1.12-1,2.27-2.29,3.58.33,0,.75-.07,1-.07h1.54v1H78.52Z"/><path class="cls-4" d="M90.57,17.69H92V13.55H90.82v-.71a4.16,4.16,0,0,0,1.45-.51h.85v5.36h1.24v.93H90.57Z"/><rect class="cls-4" x="29.13" y="23.26" width="19.15" height="1.37"/><rect class="cls-4" x="66.92" y="23.26" width="19.15" height="1.37"/><rect class="cls-4" x="89.14" y="23.26" width="6.73" height="1.37"/><path class="cls-6" d="M94.36,33H89.6A2,2,0,0,1,87.67,31h0a2,2,0,0,1,1.93-1.94h4.76A2,2,0,0,1,96.3,31h0A2,2,0,0,1,94.36,33Z"/><path class="cls-5" d="M95.85,33H91.09A2,2,0,0,1,89.16,31h0a2,2,0,0,1,1.93-1.94h4.76A2,2,0,0,1,97.79,31h0A2,2,0,0,1,95.85,33Z"/><path class="cls-7" d="M79.76,33H75A2,2,0,0,1,73.07,31h0A2,2,0,0,1,75,29.07h4.76A2,2,0,0,1,81.7,31h0A2,2,0,0,1,79.76,33Z"/><path class="cls-4" d="M81.25,33H76.49A2,2,0,0,1,74.56,31h0a2,2,0,0,1,1.93-1.94h4.76A2,2,0,0,1,83.19,31h0A2,2,0,0,1,81.25,33Z"/><path class="cls-7" d="M64.69,33H59.93A2,2,0,0,1,58,31h0a2,2,0,0,1,1.94-1.94h4.76A2,2,0,0,1,66.62,31h0A2,2,0,0,1,64.69,33Z"/><path class="cls-4" d="M66.18,33H61.42A2,2,0,0,1,59.48,31h0a2,2,0,0,1,1.94-1.94h4.76A2,2,0,0,1,68.11,31h0A2,2,0,0,1,66.18,33Z"/><path class="cls-7" d="M49.61,33H44.86A2,2,0,0,1,42.92,31h0a2,2,0,0,1,1.94-1.94h4.75A2,2,0,0,1,51.55,31h0A2,2,0,0,1,49.61,33Z"/><path class="cls-4" d="M51.1,33H46.34A2,2,0,0,1,44.41,31h0a2,2,0,0,1,1.93-1.94H51.1A2,2,0,0,1,53,31h0A2,2,0,0,1,51.1,33Z"/><path class="cls-7" d="M34.54,33H29.78A2,2,0,0,1,27.85,31h0a2,2,0,0,1,1.93-1.94h4.76A2,2,0,0,1,36.47,31h0A2,2,0,0,1,34.54,33Z"/><path class="cls-4" d="M36,33H31.27A2,2,0,0,1,29.33,31h0a2,2,0,0,1,1.94-1.94H36A2,2,0,0,1,38,31h0A2,2,0,0,1,36,33Z"/></g></g></svg>